<?xml version="1.0" encoding="UTF-8"?>
<svg id="uuid-6a3366eb-578d-455b-a950-ba8d8bf64776" data-name="Layer 2" xmlns="http://www.w3.org/2000/svg" viewBox="0 0 166.7 166.7">
  <g id="uuid-b4969e45-eb3a-4add-9125-0f5c31dd9281" data-name="Layer 1">
    <path d="M0,0v137.98l28.72,28.72h137.98V0H0ZM108.36,123.75c-1.62,1.04-3.36,1.24-5.21.7-.98-.29-1.81-.84-2.4-1.66-.84-1.17-1.59-2.4-2.39-3.6-.35-.53-.69-1.08-1.08-1.57-.12-.15-.45-.26-.63-.21-2.19.57-4.36,1.19-6.54,1.77-.41.11-.61.3-.64.7-.06.94-.13,1.87-.18,2.81-.04.8-.06,1.61-.1,2.41-.14,2.59-2.17,4.9-4.72,5.38-.11.02-.22.07-.32.1h-1.41c-.13-.03-.25-.08-.38-.1-2.66-.46-4.68-2.61-4.86-5.28-.11-1.71-.14-3.42-.19-5.13-.01-.51-.21-.76-.74-.89-1.87-.45-3.74-.92-5.58-1.47-1.54-.46-1.53-.52-2.37.86-.76,1.24-1.43,2.55-2.3,3.72-2.51,3.37-7.27,3.28-9.55-.16-1.33-2.01-1.35-4.16-.2-6.29.8-1.49,1.65-2.96,2.52-4.52-1.89-1.8-3.81-3.63-5.72-5.46-.25-.24-.47-.15-.72-.02-1.38.76-2.76,1.51-4.15,2.25-.87.47-1.81.67-2.81.67-2.55,0-4.75-1.57-5.58-4-.81-2.38-.09-4.92,1.99-6.39,1.56-1.1,3.24-2.02,4.87-3.01.28-.17.35-.29.25-.63-.6-2.11-1.18-4.22-1.74-6.34-.25-.97-.25-1-1.23-1.1-.12-.01-.23-.01-.35-.02-1.46-.06-2.92-.17-4.37-.18-2.05,0-4.59-1.76-5.28-4.15-.09-.3-.16-.61-.25-.91v-1.51c.19-.6.32-1.23.59-1.8.95-1.98,2.54-3.15,4.74-3.33,1.8-.14,3.62-.13,5.43-.16.34,0,.51-.08.56-.45.08-.52.24-1.03.4-1.67.37.22.68.37.95.57,1.95,1.38,4.08,2.45,6.29,3.34.49.2,1.02.3,1.6.47,0,.18,0,.4,0,.61.08,2.36.06,4.73.28,7.08.41,4.45,2.09,8.49,4.61,12.14,4.54,6.59,10.75,10.71,18.62,12.26,2.99.59,6.01.51,9.03.19,1.99-.21,3.94-.63,5.81-1.34.34-.13.51,0,.72.22,3.42,3.46,6.85,6.92,10.27,10.37,1.3,1.31,2.69,2.47,4.41,3.2.34.15.61.48.91.73-.28.27-.54.58-.86.79ZM118.73,114c-1.3,3.33-4.98,4.84-8.22,3.34-.78-.36-1.49-.98-2.12-1.59-3.63-3.53-7.27-7.06-10.84-10.66-10.73-10.82-21.42-21.67-32.12-32.52-.33-.33-.61-.45-1.09-.35-1.95.43-3.92.68-5.94.55-6.74-.41-12.55-5.63-13.62-12.28-.28-1.72-.37-3.43-.1-5.16.02-.15.06-.3.1-.44.25-.8.61-.93,1.25-.41,1.78,1.47,3.53,3,5.34,4.44,1.12.9,2.3,1.74,3.51,2.52,1.44.93,3.02,1.09,4.62.43,2.73-1.13,4.64-3.04,5.37-5.96.44-1.77.08-3.3-1.44-4.49-2.07-1.63-4.08-3.33-6.12-5-.49-.41-.97-.83-1.42-1.28-.63-.65-.5-1.46.35-1.76,1.09-.38,2.21-.78,3.34-.88,2.16-.19,4.36-.06,6.42.65,3.67,1.26,6.17,3.86,7.87,7.28,1,2.02,1.32,4.17,1.25,6.4-.02.7,0,1.41,0,2.11-.07,0-.15,0-.22,0,0,1.21.02,2.41,0,3.62-.03,1.22.37,2.29,1.19,3.17,2.37,2.54,4.73,5.09,7.16,7.57,10.33,10.57,20.69,21.11,31.03,31.68,1.23,1.26,2.4,2.57,3.6,3.87,1.41,1.53,1.58,3.29.86,5.14ZM132.69,82.04c-.09.32-.17.64-.26.96-.68,2.31-3.17,4.09-5.27,4.1-1.56,0-3.12.11-4.68.18-.98.04-1.02.12-1.27,1.06-.56,2.14-1.14,4.27-1.75,6.39-.09.33-.03.46.24.63,1.51.9,3,1.84,4.53,2.72,1.54.88,2.22,2.28,2.5,3.93.4,2.4-.54,4.29-2.35,5.81-.28.24-.53.35-.76-.06-1.39-2.48-3.5-4.36-5.42-6.39-2.59-2.73-5.22-5.41-7.85-8.1-.33-.34-.41-.61-.26-1.09.59-1.94,1.19-3.88,1.64-5.85.53-2.36.41-4.78.28-7.17-.42-8.12-4-14.68-10.07-19.93-3.72-3.22-8.06-5.32-12.87-6.29-1.94-.39-3.97-.35-5.96-.49-.84-.06-1.68-.08-2.51-.09-.29,0-.45-.08-.53-.39-.76-2.89-2.09-5.51-3.88-7.89-.13-.18-.22-.4-.32-.58.07-.06.09-.1.12-.1,1.11-.14,1.24-.26,1.31-1.4.09-1.52.12-3.05.21-4.58.16-2.75,2.1-4.93,4.82-5.43.08-.01.15-.06.23-.09h1.51c.11.03.22.08.33.1,2.99.4,4.79,3.27,4.82,5.42.01.82.05,1.64.09,2.46.04.89.09,1.78.14,2.66.03.45.26.64.71.76,2.27.59,4.53,1.21,6.78,1.85.32.09.41-.04.54-.26.97-1.59,1.92-3.19,2.93-4.75.68-1.05,1.63-1.81,2.87-2.16,3.63-1.04,7.17,1.28,7.61,5.01.18,1.48-.29,2.81-1,4.08-.75,1.33-1.5,2.65-2.3,4.04,1.91,1.83,3.82,3.66,5.73,5.5.23.22.43.18.67.04,1.46-.8,2.88-1.66,4.38-2.35,2.22-1.03,4.36-.84,6.32.71,3.06,2.4,2.68,7.07.06,8.94-.35.25-.69.54-1.06.76-1.34.82-2.69,1.63-4.05,2.44-.21.12-.32.22-.23.51.62,2.19,1.22,4.38,1.82,6.58.25.91.25.93,1.23.96,1.61.06,3.22.07,4.83.19,2.26.18,3.88,1.37,4.84,3.42.27.57.37,1.21.55,1.82v1.41Z" style="fill: #265380; stroke-width: 0px;"/>
  </g>
</svg>